<svg width="21" height="21" viewBox="0 0 21 21" fill="none" xmlns="http://www.w3.org/2000/svg">
<path d="M10.25 19.5C10.25 19.3011 10.329 19.1103 10.4697 18.9697C10.6103 18.829 10.8011 18.75 11 18.75C12.8864 18.75 14.7158 18.1036 16.1834 16.9184C17.651 15.7332 18.6681 14.0809 19.0653 12.2368C19.4624 10.3927 19.2155 8.46813 18.3658 6.78394C17.5161 5.09974 16.1149 3.7576 14.3957 2.98119C12.6765 2.20478 10.7431 2.041 8.91779 2.51714C7.09247 2.99327 5.48545 4.08057 4.36455 5.59783C3.24364 7.11508 2.67655 8.97065 2.75779 10.8553C2.83903 12.74 3.56368 14.5398 4.81099 15.955V13.318C4.81099 13.1191 4.89001 12.9283 5.03066 12.7877C5.17132 12.647 5.36208 12.568 5.56099 12.568C5.75991 12.568 5.95067 12.647 6.09132 12.7877C6.23198 12.9283 6.31099 13.1191 6.31099 13.318V17.561C6.31099 17.6596 6.29156 17.7572 6.25381 17.8483C6.21605 17.9393 6.16072 18.022 6.09097 18.0917C6.02122 18.1614 5.93842 18.2166 5.84731 18.2542C5.7562 18.2918 5.65857 18.3111 5.55999 18.311H1.31799C1.11908 18.311 0.928315 18.232 0.787663 18.0913C0.647011 17.9507 0.567993 17.7599 0.567993 17.561C0.567993 17.3621 0.647011 17.1713 0.787663 17.0307C0.928315 16.89 1.11908 16.811 1.31799 16.811H3.56799C2.13022 15.1174 1.31394 12.9836 1.2543 10.7628C1.19466 8.54195 1.89524 6.36737 3.24005 4.59903C4.58486 2.83069 6.49325 1.57464 8.64927 1.03883C10.8053 0.503024 13.0797 0.719586 15.0958 1.65267C17.112 2.58575 18.749 4.17939 19.7359 6.16975C20.7228 8.16011 21.0004 10.4278 20.5227 12.5975C20.045 14.7671 18.8407 16.7086 17.1091 18.1004C15.3776 19.4922 13.2226 20.251 11.001 20.251C10.9023 20.2511 10.8046 20.2318 10.7134 20.1941C10.6223 20.1564 10.5394 20.1011 10.4697 20.0313C10.3999 19.9616 10.3446 19.8787 10.3069 19.7876C10.2692 19.6964 10.2499 19.5987 10.25 19.5ZM13.125 14.686L10.468 12.031C10.3274 11.89 10.2483 11.6991 10.248 11.5V6.30001C10.248 6.1011 10.327 5.91034 10.4677 5.76968C10.6083 5.62903 10.7991 5.55001 10.998 5.55001C11.1969 5.55001 11.3877 5.62903 11.5283 5.76968C11.669 5.91034 11.748 6.1011 11.748 6.30001V11.189L14.184 13.625C14.2556 13.6942 14.3127 13.777 14.352 13.8685C14.3912 13.9601 14.4119 14.0585 14.4127 14.1581C14.4135 14.2577 14.3945 14.3564 14.3567 14.4486C14.319 14.5407 14.2632 14.6244 14.1928 14.6948C14.1223 14.7652 14.0386 14.8208 13.9464 14.8585C13.8542 14.8962 13.7554 14.9151 13.6558 14.9142C13.5562 14.9133 13.4578 14.8926 13.3664 14.8532C13.2749 14.8139 13.1921 14.7567 13.123 14.685L13.125 14.686Z" fill="white"/>
</svg>
